<svg xmlns="http://www.w3.org/2000/svg" xmlns:xlink="http://www.w3.org/1999/xlink" id="Layer_1" x="0px" y="0px" width="550px" height="340px" viewBox="0 0 550 340" xml:space="preserve"> <g> <path fill="#82A13D" d="M133.072,9.887c7.127,5.078,10.694,11.501,10.694,19.273c0,5.393-1.843,9.598-5.526,12.608 c-3.688,3.016-8.175,4.52-13.462,4.52c-3.525,0-6.812-0.712-9.854-2.14c-3.045-1.427-5.449-3.487-7.211-6.186 c4.484-3.333,6.73-8.247,6.73-14.752c0-4.6-1.404-8.603-4.206-12.016c-2.806-3.408-6.693-5.114-11.657-5.114 c-6.248,0-11.698,2.735-16.344,8.208c-4.648,5.47-6.969,12.414-6.969,20.816c0,5.081,1.357,10.076,4.085,14.991 c2.721,4.916,6.81,9.2,12.259,12.847h23.792v4.044H91.612v88.272c0,9.2,0.318,15.941,0.96,20.222 c0.639,4.283,2.403,9.837,5.287,16.655H51.714c2.884-6.188,4.644-11.26,5.287-15.227c0.636-3.964,0.961-9.993,0.961-18.081V66.987 H44.983v-4.044h12.979c0-20.777,4.565-36.082,13.7-45.919c9.133-9.832,20.671-14.751,34.61-14.751 C117.007,2.273,125.938,4.813,133.072,9.887z"></path> <path fill="#82A13D" d="M150.617,186.783c-9.374-6.104-16.427-14.115-21.151-24.029c-4.727-9.913-7.089-20.581-7.089-32.002 c0-11.896,2.962-23.157,8.894-33.786c5.927-10.624,14.419-19.188,25.476-25.694c11.058-6.502,23.795-9.754,38.218-9.754 c10.093,0,18.626,1.628,25.598,4.875c6.97,3.255,12.174,7.578,15.621,12.968c3.445,5.395,5.168,11.182,5.168,17.369 c0,7.613-2.445,14.476-7.33,20.58c-4.891,6.106-11.538,10.826-19.948,14.157c-8.413,3.33-17.668,4.995-27.763,4.995 c-10.417,0-19.708-1.901-27.879-5.71c1.44,13.802,6.007,25.381,13.697,34.737c7.692,9.361,17.787,14.036,30.285,14.036 c8.811,0,17.024-3.527,24.638-10.587c7.608-7.055,13.177-15.821,16.704-26.29l1.921,1.429 c-2.245,11.263-6.609,20.816-13.099,28.669c-6.49,7.853-14.022,13.681-22.591,17.486c-8.574,3.809-17.028,5.712-25.359,5.712 C171.326,195.944,159.99,192.887,150.617,186.783z M202.895,121.115c6.407-7.53,9.614-17.167,9.614-28.905 c0-8.405-1.765-15.11-5.287-20.104c-3.528-4.998-7.934-7.497-13.222-7.497c-7.532,0-14.021,2.818-19.468,8.447 c-5.449,5.631-9.576,12.812-12.377,21.533c-2.806,8.726-4.207,17.606-4.207,26.646c0,3.016,0.08,5.233,0.241,6.662 c7.05,3.016,13.54,4.521,19.468,4.521C188.072,132.418,196.483,128.653,202.895,121.115z"></path> <path fill="#82A13D" d="M356.238,66.871c4.165,4.044,6.248,8.92,6.248,14.632c0,6.185-2.281,11.579-6.849,16.178 c-4.566,4.603-10.057,6.901-16.464,6.901c-3.527,0-6.73-0.953-9.614-2.857c1.599-1.582,2.801-3.486,3.604-5.709 c0.801-2.219,1.202-4.439,1.202-6.663c0-3.962-1.001-7.216-3.003-9.753c-2.006-2.536-4.609-3.809-7.813-3.809 c-4.17,0-8.134,2.659-11.897,7.973c-3.767,5.315-6.851,12.648-9.254,22.008s-3.605,19.669-3.605,30.93v18.559 c0,9.2,0.319,15.979,0.963,20.341c0.639,4.364,2.403,9.956,5.288,16.775h-46.148c2.724-5.712,4.446-10.508,5.168-14.396 c0.721-3.886,1.083-8.922,1.083-15.106v-7.614v-51.392c0-0.477,0.036-2.416,0.119-5.829c0.077-3.411-0.603-7.175-2.043-11.302 c-1.443-4.122-3.605-8.009-6.489-11.658c15.862-1.584,29.882-5.629,42.06-12.136v44.019c3.042-12.851,7.85-23.753,14.422-32.717 c6.567-8.959,15.223-13.442,25.958-13.442C346.386,60.803,352.07,62.824,356.238,66.871z"></path> <path fill="#82A13D" d="M380.512,160.016V77.935c0-6.502-3.446-11.422-10.333-14.752c12.979-2.536,22.952-8.05,29.924-16.536 c6.971-8.483,11.176-17.25,12.619-26.292h1.682v42.589h20.67v4.044h-20.67v93.268c0,7.933,1.08,14.239,3.245,18.915 c2.162,4.681,4.725,8.13,7.691,10.348c2.962,2.225,6.768,4.285,11.416,6.188v0.477C399.26,196.498,380.512,184.445,380.512,160.016 z"></path> <path fill="#82A13D" d="M449.255,192.611c2.724-5.708,4.446-10.504,5.168-14.392c0.722-3.887,1.083-8.923,1.083-15.11v-7.613 v-51.628c0-0.477,0.036-2.416,0.119-5.829c0.078-3.411-0.602-7.175-2.043-11.302c-1.443-4.122-3.605-8.009-6.489-11.658 c15.863-1.584,29.883-5.629,42.06-12.136v92.553c0,9.2,0.319,15.983,0.963,20.344c0.639,4.363,2.404,9.954,5.288,16.771H449.255z M457.668,47.241c-3.688-3.646-5.529-7.93-5.529-12.847c0.158-4.915,2.124-9.162,5.89-12.73c3.762-3.569,8.131-5.354,13.099-5.354 c5.128,0,9.452,1.785,12.979,5.354c3.522,3.568,5.288,7.815,5.288,12.73c-0.162,5.077-2.085,9.397-5.769,12.966 c-3.688,3.569-8.016,5.354-12.979,5.354C465.679,52.714,461.352,50.891,457.668,47.241z"></path> <path fill="#82A13D" d="M19.746,229.709c-1.124-2.535-3.845-6.818-8.171-12.848C7.248,210.835,3.723,206.79,1,204.726h53.837 c-1.603,2.54-2.404,4.997-2.404,7.377c0,1.745,0.482,3.889,1.444,6.424l29.563,71.377l19.708-42.35 c2.082-4.601,3.125-9.281,3.125-14.039c0-9.196-3.688-18.796-11.056-28.789h38.457c-2.248,3.652-3.366,7.853-3.366,12.611 c0,3.015,0.48,5.631,1.442,7.85l29.564,64.003l16.582-41.636c2.404-5.868,3.605-12.214,3.605-19.034 c0-8.566-1.765-16.494-5.288-23.794h30.766c-6.248,7.458-10.815,13.442-13.7,17.965c-2.884,4.52-5.929,10.824-9.132,18.915 l-37.256,92.313h-2.162l-39.9-82.561l-39.417,82.561h-2.163L19.746,229.709z"></path> <path fill="#82A13D" d="M232.214,328.446c-10.417-6.186-18.267-14.313-23.555-24.386c-5.287-10.07-7.931-20.897-7.931-32.477 c0-11.577,2.683-22.64,8.053-33.191c5.366-10.547,13.258-19.151,23.674-25.814c10.414-6.663,22.914-9.992,37.494-9.992 c14.422,0,26.799,3.293,37.136,9.873c10.334,6.585,18.103,15.107,23.313,25.578c5.206,10.468,7.812,21.494,7.812,33.071 c0,11.579-2.605,22.445-7.812,32.594c-5.21,10.153-12.979,18.361-23.313,24.625c-10.337,6.265-22.714,9.399-37.136,9.399 C255.205,337.727,242.629,334.634,232.214,328.446z M288.696,326.187c5.287-6.104,9.292-14.074,12.019-23.911 c2.723-9.834,4.086-20.302,4.086-31.406c0-11.102-1.363-21.69-4.086-31.763c-2.727-10.07-6.731-18.278-12.019-24.624 c-5.288-6.344-11.618-9.518-18.985-9.518c-7.373,0-13.701,3.174-18.989,9.518c-5.287,6.346-9.295,14.554-12.018,24.624 c-2.727,10.072-4.087,20.661-4.087,31.763c0,11.104,1.36,21.572,4.087,31.406c2.723,9.837,6.73,17.807,12.018,23.911 c5.288,6.108,11.616,9.161,18.989,9.161C277.078,335.348,283.408,332.295,288.696,326.187z"></path> <path fill="#82A13D" d="M382.675,328.446c-10.417-6.186-18.267-14.313-23.555-24.386c-5.287-10.07-7.931-20.897-7.931-32.477 c0-11.577,2.683-22.64,8.053-33.191c5.365-10.547,13.258-19.151,23.674-25.814c10.414-6.663,22.914-9.992,37.494-9.992 c14.423,0,26.8,3.293,37.136,9.873c10.334,6.585,18.104,15.107,23.313,25.578c5.205,10.468,7.811,21.494,7.811,33.071 c0,11.579-2.605,22.445-7.811,32.594c-5.21,10.153-12.979,18.361-23.313,24.625c-10.336,6.265-22.713,9.399-37.136,9.399 C405.666,337.727,393.09,334.634,382.675,328.446z M439.157,326.187c5.288-6.104,9.293-14.074,12.02-23.911 c2.722-9.834,4.085-20.302,4.085-31.406c0-11.102-1.363-21.69-4.085-31.763c-2.727-10.07-6.731-18.278-12.02-24.624 c-5.288-6.344-11.618-9.518-18.985-9.518c-7.373,0-13.701,3.174-18.988,9.518c-5.288,6.346-9.296,14.554-12.019,24.624 c-2.727,10.072-4.087,20.661-4.087,31.763c0,11.104,1.36,21.572,4.087,31.406c2.723,9.837,6.73,17.807,12.019,23.911 c5.287,6.108,11.615,9.161,18.988,9.161C427.539,335.348,433.869,332.295,439.157,326.187z"></path> <path fill="#82A13D" d="M502.852,333.919c2.722-5.708,4.446-10.505,5.167-14.395c0.722-3.884,1.082-8.921,1.082-15.108v-7.613 v-88.983c0-0.476,0.037-2.416,0.12-5.828c0.078-3.411-0.603-7.175-2.043-11.303c-1.443-4.122-3.605-8.009-6.49-11.657 c15.863-1.585,29.884-5.63,42.062-12.136v129.907c0,9.201,0.319,15.983,0.963,20.342c0.638,4.366,2.403,9.956,5.288,16.774H502.852 z"></path> </g> </svg>